<svg id="Layer_1" data-name="Layer 1" xmlns="http://www.w3.org/2000/svg" viewBox="0 0 16 16"><path d="M16,8c-.07,2,.12,5-1.44,6.56S10,15.94,8,16s-5,.12-6.56-1.44S.06,10,0,8-.12,3,1.44,1.44,6,.06,8,0s5-.12,6.56,1.44S15.94,6,16,8Z" style="fill:#f0e1e1"/><path d="M11.74,13.18V11.62l-1.27.58a10.3,10.3,0,0,1-4.77,1c-2.33-.05-3.6-.93-3.6-3S3.22,7.3,6.7,7l5-.38c0-1.18-.26-1.9-3.64-1.87-3,0-3.58.12-3.65,1.9H2.29C2.29,4,4.06,2.77,8.1,2.77c4.56,0,5.8,1,5.8,3.38v7ZM7.26,8.82c-2.38.21-3,.62-3,1.34s.36,1.18,1.94,1.18a10.84,10.84,0,0,0,5.54-1.71V8.5Z" style="fill:#303030"/></svg>