<?xml version="1.0" encoding="utf-8"?>
<!-- Generator: Adobe Illustrator 24.3.0, SVG Export Plug-In . SVG Version: 6.00 Build 0)  -->
<svg version="1.1" id="Layer_1" xmlns="http://www.w3.org/2000/svg" xmlns:xlink="http://www.w3.org/1999/xlink" x="0px" y="0px"
	 viewBox="0 0 16 16" style="enable-background:new 0 0 16 16;" xml:space="preserve">
<style type="text/css">
	.st0{fill:#F0E1E1;}
	.st1{fill:#303030;}
</style>
<path class="st0" d="M16,8c-0.1,2,0.1,5-1.4,6.5S10,15.9,8,16s-5,0.1-6.6-1.4S0.1,10,0,8s-0.1-5,1.4-6.5S6,0.1,8,0s5-0.1,6.6,1.4
	S15.9,6,16,8z"/>
<path class="st1" d="M11.7,13.2v-1.6l-1.3,0.6c-1.5,0.7-3.1,1.1-4.8,1c-2.3-0.1-3.6-0.9-3.6-3S3.2,7.3,6.7,7l5-0.4
	c0-1.2-0.3-1.9-3.6-1.9c-3,0-3.6,0.1-3.7,1.9H2.3c0-2.7,1.8-3.9,5.8-3.9c4.6,0,5.8,1,5.8,3.4v7L11.7,13.2z M7.3,8.8
	c-2.4,0.2-3,0.6-3,1.3s0.4,1.2,1.9,1.2c2-0.1,3.9-0.6,5.5-1.7V8.5L7.3,8.8z"/>
</svg>
