<?xml version="1.0" encoding="utf-8"?>
<!-- Generator: Adobe Illustrator 24.3.0, SVG Export Plug-In . SVG Version: 6.00 Build 0)  -->
<svg version="1.1" id="Layer_1" xmlns="http://www.w3.org/2000/svg" xmlns:xlink="http://www.w3.org/1999/xlink" x="0px" y="0px"
	 viewBox="0 0 200 200" style="enable-background:new 0 0 200 200;" xml:space="preserve">
<style type="text/css">
	.st0{fill-rule:evenodd;clip-rule:evenodd;}
</style>
<path class="st0" d="M99.9,26.8c-41.2,0-74.5,33.6-74.5,75.1c0,33.2,21.4,61.3,51,71.2c3.7,0.7,5.1-1.6,5.1-3.6
	c0-1.7-0.1-7.7-0.1-13.9c-20.7,4.5-25.1-9-25.1-9c-3.3-8.7-8.3-10.9-8.3-10.9c-6.8-4.6,0.5-4.6,0.5-4.6c7.5,0.5,11.5,7.7,11.5,7.7
	c6.7,11.4,17.4,8.2,21.7,6.2c0.6-4.8,2.6-8.2,4.7-10.1c-16.5-1.7-33.9-8.2-33.9-37.1c0-8.2,3-14.9,7.7-20.1
	c-0.7-1.9-3.3-9.6,0.7-19.9c0,0,6.3-2,20.5,7.7C87.5,63.9,93.7,63,100,63c6.3,0,12.7,0.9,18.6,2.5c14.2-9.7,20.5-7.7,20.5-7.7
	c4.1,10.3,1.5,18,0.7,19.9c4.8,5.2,7.7,11.9,7.7,20.1c0,28.8-17.4,35.2-34.1,37.1c2.7,2.4,5.1,6.8,5.1,13.9
	c0,10.1-0.1,18.2-0.1,20.6c0,2,1.4,4.4,5.1,3.6c29.6-9.9,51-38,51-71.2C174.4,60.3,141,26.8,99.9,26.8z"/>
</svg>
