<?xml version="1.0" encoding="utf-8"?>
<!-- Generator: Adobe Illustrator 24.3.0, SVG Export Plug-In . SVG Version: 6.00 Build 0)  -->
<svg version="1.1" id="Layer_1" xmlns="http://www.w3.org/2000/svg" xmlns:xlink="http://www.w3.org/1999/xlink" x="0px" y="0px"
	 viewBox="0 0 200 200" style="enable-background:new 0 0 200 200;" xml:space="preserve">
<style type="text/css">
	.st0{fill:#303030;}
</style>
<path class="st0" d="M42.4,30.8c-6.8,4-20.2,19.4-20.3,23.4v6.7c0,8.5,7.9,15.9,15.1,15.9c8.6,0,15.8-7.1,15.8-15.6
	c0,8.5,6.9,15.6,15.6,15.6c8.6,0,15.3-7.1,15.3-15.6c0,8.5,7.4,15.6,16,15.6h0.2c8.6,0,16-7.1,16-15.6c0,8.5,6.7,15.6,15.3,15.6
	c8.6,0,15.6-7.1,15.6-15.6c0,8.5,7.2,15.6,15.8,15.6c7.2,0,15.1-7.4,15.1-15.9v-6.7c-0.1-4-13.5-19.4-20.3-23.4
	c-21.1-0.7-35.8-0.9-57.6-0.9C78.2,29.9,48.4,30.3,42.4,30.8L42.4,30.8z M83.8,72.8c-0.8,1.4-1.8,2.8-3,3.9
	c-3.3,3.2-7.7,5.2-12.6,5.2c-4.7,0-9.3-1.8-12.7-5.2c-1.2-1.2-2.1-2.4-2.9-3.8l0,0c-0.8,1.4-2,2.7-3.1,3.8
	c-3.4,3.3-7.9,5.2-12.7,5.2c-0.6,0-1.2-0.2-1.7-0.3c-0.7,7.2-1,14.1-1.1,19.1l0,0c0,2.6,0,4.7,0,7.6c0.1,15.1-1.5,49.1,6.7,57.4
	c12.7,3,36,4.3,59.4,4.3h0c23.4,0,46.7-1.4,59.4-4.3c8.2-8.3,6.5-42.3,6.7-57.4c0-2.9,0-5,0-7.6l0,0c-0.1-5-0.4-11.9-1.1-19.1
	c-0.5,0.2-1.1,0.3-1.7,0.3c-4.7,0-9.3-1.8-12.7-5.2c-1.2-1.2-2.3-2.4-3.1-3.8l0,0c-0.8,1.4-1.7,2.7-2.9,3.8
	c-3.4,3.3-7.9,5.2-12.7,5.2c-4.9,0-9.4-2-12.6-5.2c-1.2-1.2-2.2-2.5-3-3.9c-0.8,1.4-1.8,2.8-3,3.9c-3.4,3.3-7.9,5.2-12.7,5.2
	c-0.2,0-0.3,0-0.5,0h0c-0.2,0-0.3,0-0.5,0c-4.7,0-9.3-1.8-12.7-5.2C85.6,75.6,84.6,74.3,83.8,72.8L83.8,72.8z M70.8,89.7L70.8,89.7
	L70.8,89.7c5.2,0,9.7,0,15.4,6.2c4.5-0.5,9.1-0.7,13.8-0.7h0c4.7,0,9.3,0.2,13.8,0.7c5.7-6.2,10.2-6.2,15.4-6.2h0l0,0
	c2.4,0,12.2,0,18.9,19l7.3,26.1c5.4,19.4-1.7,19.9-10.6,19.9c-13.2-0.5-20.5-10.1-20.5-19.6c-7.3,1.2-15.8,1.8-24.3,1.8h0
	c-8.5,0-17-0.6-24.3-1.8c0,9.6-7.3,19.1-20.5,19.6c-8.9,0-16-0.5-10.6-19.9l7.3-26.1C58.6,89.7,68.4,89.7,70.8,89.7L70.8,89.7z
	 M100,104.6L100,104.6c0,0-13.9,12.8-16.4,17.3l9.1-0.4v7.9c0,0.4,3.6,0.2,7.3,0.1h0c3.6,0.2,7.3,0.3,7.3-0.1v-7.9l9.1,0.4
	C113.9,117.4,100,104.6,100,104.6L100,104.6L100,104.6L100,104.6z"/>
</svg>
