<?xml version="1.0" encoding="utf-8"?>
<!-- Generator: Adobe Illustrator 24.3.0, SVG Export Plug-In . SVG Version: 6.00 Build 0)  -->
<svg version="1.1" id="Layer_1" xmlns="http://www.w3.org/2000/svg" xmlns:xlink="http://www.w3.org/1999/xlink" x="0px" y="0px"
	 viewBox="0 0 200 200" style="enable-background:new 0 0 200 200;" xml:space="preserve">
<style type="text/css">
	.st0{fill:#303030;}
</style>
<path class="st0" d="M184.3,57.4c-2-7.6-8-13.6-15.6-15.7C155,38,100,38,100,38s-55,0-68.8,3.7c-7.6,2.1-13.5,8-15.6,15.7
	C12,71.2,12,100,12,100s0,28.8,3.7,42.6c2,7.6,8,13.6,15.6,15.7C45,162,100,162,100,162s55,0,68.8-3.7c7.6-2.1,13.5-8,15.6-15.7
	C188,128.8,188,100,188,100S188,71.2,184.3,57.4z M82,126.2V73.8l46,26.2L82,126.2z"/>
</svg>
