<?xml version="1.0" encoding="UTF-8" standalone="no"?>
<svg
   width="128"
   height="128"
   viewBox="0 0 128 128"
   version="1.1"
   id="svg2"
   sodipodi:docname="favicon.svg"
   inkscape:version="1.4.2 (f4327f4, 2025-05-13)"
   xmlns:inkscape="http://www.inkscape.org/namespaces/inkscape"
   xmlns:sodipodi="http://sodipodi.sourceforge.net/DTD/sodipodi-0.dtd"
   xmlns="http://www.w3.org/2000/svg"
   xmlns:svg="http://www.w3.org/2000/svg"
   xmlns:rdf="http://www.w3.org/1999/02/22-rdf-syntax-ns#"
   xmlns:cc="http://creativecommons.org/ns#"
   xmlns:dc="http://purl.org/dc/elements/1.1/">
  <defs
     id="defs2" />
  <sodipodi:namedview
     id="namedview2"
     pagecolor="#ffffff"
     bordercolor="#000000"
     borderopacity="0.25"
     inkscape:showpageshadow="2"
     inkscape:pageopacity="0.0"
     inkscape:pagecheckerboard="0"
     inkscape:deskcolor="#d1d1d1"
     inkscape:zoom="34.162096"
     inkscape:cx="8.708482"
     inkscape:cy="59.700669"
     inkscape:window-width="1920"
     inkscape:window-height="991"
     inkscape:window-x="-9"
     inkscape:window-y="-9"
     inkscape:window-maximized="1"
     inkscape:current-layer="svg2" />
  <title
     id="title1">svelte-logo</title>
  <metadata
     id="metadata2">
    <rdf:RDF>
      <cc:Work
         rdf:about="">
        <dc:title>svelte-logo</dc:title>
      </cc:Work>
    </rdf:RDF>
  </metadata>
  <g
     id="text1"
     style="opacity:1"
     transform="translate(0.00558472,-0.25619533)">
    <path
       style="font-size:128px;font-family:'Syne Tactile';-inkscape-font-specification:'Syne Tactile';baseline-shift:baseline;display:inline;overflow:visible;vector-effect:none;fill:#ffffff;stroke-linecap:round;stroke-linejoin:round;paint-order:stroke fill markers;enable-background:accumulate;stop-color:#000000;stop-opacity:1"
       d="m 91.242187,23.125 c -1.610194,0.128816 -2.756102,0.598764 -3.910156,1.144531 -1.495382,0.692986 -2.915033,1.583664 -4.27539,2.623047 -1.320014,0.924568 -2.689699,2.019633 -4.199219,3.351563 a 5.50055,5.50055 0 0 0 -0.02148,0.01953 c -3.128128,2.789952 -5.487172,4.851286 -7.029296,6.15039 -1.382076,1.15173 -2.455247,1.834069 -2.521485,1.867188 l 2.216797,-0.525391 a 5.50055,5.50055 0 0 0 -5.125,7.117188 l 2.943359,9.216797 a 5.50055,5.50055 0 0 0 4.404297,3.552734 c -0.366309,1.103845 -0.649067,2.109972 -1.107422,3.318359 a 5.50055,5.50055 0 0 0 -0.03711,0.101563 c -0.948197,2.654953 -1.76975,5.596689 -2.492187,8.847656 a 5.50055,5.50055 0 0 0 -0.02539,0.115235 c -0.382415,1.912074 -0.92954,4.038587 -1.650391,6.361328 a 5.50055,5.50055 0 0 0 -0.03711,0.11914 c -0.636947,2.229316 -1.270391,4.632173 -1.902344,7.13086 -0.148283,0.213367 -0.360269,0.51108 -0.716797,0.964843 l 0.125,-0.154296 c -1.143048,1.350875 -2.212337,2.879138 -3.251953,4.572265 -1.353515,2.103558 -2.273437,4.560943 -2.273437,7.171875 0,1.478222 0.281433,2.11969 0.539062,2.892578 a 5.50055,5.50055 0 0 0 5.216797,3.759767 H 65.25391 l 5.988281,2.21875 a 5.50055,5.50055 0 0 0 1.910157,0.3418 h 0.126953 c 1.823897,0 3.784426,-0.78649 5.083984,-1.90039 1.25411,-1.07496 1.998673,-2.308 2.558594,-3.537114 0.843559,-1.712648 1.295764,-3.579678 1.5,-5.47461 a 5.50055,5.50055 0 0 0 0.162109,-0.166015 l 0.25586,-1.023438 -0.228516,0.707032 c 0.114441,-0.286103 0.150351,-0.579729 0.240234,-0.869141 L 89.00977,85.236327 A 5.50055,5.50055 0 0 0 89.347656,84.75 c 2.052563,-3.315679 4.527308,-6.673461 7.435547,-10.066406 a 5.50055,5.50055 0 0 0 0.04102,-0.04883 c 3.243187,-3.873813 6.363967,-8.200983 9.373047,-12.976563 l 0.0254,-0.03906 c 3.62344,-5.644919 6.29092,-9.659818 7.87109,-11.873047 0.69018,-0.950219 1.3304,-1.495144 1.75195,-1.865235 l 4.45118,0.175782 a 5.50055,5.50055 0 0 0 5.62695,-4.513672 l 1.79101,-9.855469 a 5.50055,5.50055 0 0 0 -5.28515,-6.425781 l 1.25976,0.193359 c -1.44629,-0.451965 -2.60672,-0.784133 -3.64843,-1.015625 -1.14699,-0.254887 -2.32069,-0.386719 -3.4961,-0.386719 -1.17541,0 -2.35105,0.131832 -3.49804,0.386719 a 5.50055,5.50055 0 0 0 -0.14063,0.0332 c -0.85896,0.214741 -1.79601,0.500434 -2.85547,0.851563 -3.11652,0.9631 -4.74305,2.838368 -6.57617,5.078125 -0.37673,0.440433 -0.79067,1.015114 -1.17383,1.480468 -0.29365,-2.075488 -1.37354,-3.592937 -2.417964,-5.039062 a 5.50055,5.50055 0 0 0 -0.08984,-0.121094 C 98.69013,27.280483 97.846368,26.256719 96.947266,25.332031 95.37116,23.57583 92.834164,22.997642 91.242187,23.125 Z m -65.833984,0.494141 c -1.814461,0 -3.698276,0.367692 -5.404297,1.220703 -3.227764,1.613882 -5.910762,4.185779 -8.169922,7.36914 a 5.50055,5.50055 0 0 0 -0.06836,0.09766 c -2.0357497,3.005154 -3.782052,6.375557 -5.2695313,10.085937 -0.00137,0.0033 -0.00254,0.0064 -0.00391,0.0098 -1.4336476,3.495471 -2.6504607,6.963488 -3.6464844,10.404297 a 5.50055,5.50055 0 0 0 -0.027344,0.09375 c -0.8930537,3.30428 -1.5384923,6.221246 -1.92382305,8.822228 a 5.50055,5.50055 0 0 0 -0.0136719,0.101563 C 0.51527215,64.65752 0.2896975,67.566935 0.19921872,70.552734 a 5.50055,5.50055 0 0 0 -0.003906,0.167969 v 8.0625 c 0,1.599333 0.2339726,2.843389 0.59375,4.912109 a 5.50055,5.50055 0 0 0 0.007813,0.04102 c 0.37150528,2.04328 0.87155668,4.25904 1.49609378,6.667969 a 5.50055,5.50055 0 0 0 0.011719,0.04883 c 0.6420368,2.384708 1.3425488,4.545825 2.125,6.501953 a 5.50055,5.50055 0 0 0 0.089844,0.214844 c 1.0073082,2.238463 1.8573016,4.662722 5.5820315,5.904302 a 5.50055,5.50055 0 0 0 0.226562,0.0703 c 2.148769,0.61394 3.972416,-0.009 5.125,-0.60742 1.152584,-0.59818 1.945383,-1.27868 2.724609,-2.02734 1.558453,-1.497345 3.008776,-3.355907 4.699219,-5.777352 a 5.50055,5.50055 0 0 0 0.06641,-0.09766 c 0.90666,-1.35999 1.940912,-2.741204 3.105469,-4.138672 a 5.50055,5.50055 0 0 0 0.0918,-0.111328 c 1.367237,-1.731833 2.722809,-3.58512 4.068359,-5.558594 A 5.50055,5.50055 0 0 0 30.257812,84.75 c 1.494265,-2.271282 2.742565,-4.648476 4.041016,-7.003906 -0.506454,3.857057 -0.822266,7.596868 -0.822266,11.15039 0,1.479917 0.04517,3.067279 0.134766,4.769532 0.11513,2.187472 0.59708,4.329821 1.560547,6.294921 0.855527,1.797573 3.034116,3.763133 5.333984,4.173833 1.903953,0.33999 3.37982,-0.0801 4.691407,-0.61524 0.119968,-0.0365 0.472383,-0.0474 0.597656,-0.0898 2.455802,-0.29324 4.074829,-1.4136 5.533203,-2.62891 a 5.50055,5.50055 0 0 0 0.08789,-0.0742 c 2.291774,-1.992845 4.396129,-4.300201 6.316406,-6.892576 a 5.50055,5.50055 0 0 0 0.05469,-0.07813 c 1.695867,-2.374213 3.348216,-4.661743 4.957032,-6.863281 l -0.330079,0.410156 c 1.052267,-1.1838 1.933604,-2.545923 2.533204,-4.044922 l -0.1875,0.417969 c 0.197097,-0.394194 0.371512,-0.611747 0.505859,-0.746094 1.735961,-1.735961 2.634766,-4.340586 2.634766,-6.578125 a 5.50055,5.50055 0 0 0 -5.5,-5.5 h 0.453125 L 61.53125,68.783203 a 5.50055,5.50055 0 0 0 -4.634766,-2.539062 h -0.384765 a 5.50055,5.50055 0 0 0 -2.181641,0.904296 c 0.09604,-0.464717 0.164754,-0.958303 0.263672,-1.419921 0.778476,-3.632888 1.430868,-6.933243 1.957031,-9.914063 l 0.002,-0.0098 c 0.446156,-2.499681 0.804587,-4.961985 1.074219,-7.388671 l -0.02539,0.197265 c 0.312122,-2.106823 0.741585,-4.218656 1.291016,-6.33789 a 5.50055,5.50055 0 0 0 0.04492,-0.185547 c 0.19874,-0.89433 0.385474,-1.881203 0.568359,-2.978516 l -0.06641,0.333984 c 0.272889,-1.182519 0.450785,-2.317443 0.570313,-3.439453 0.231792,-1.321393 0.32843,-2.663264 0.175781,-4.037109 l 0.0078,0.06055 c -0.04176,-0.417636 -0.07318,-0.738624 -0.0918,-0.94336 -0.01861,-0.204735 -0.0098,-0.791968 -0.0098,0.08203 0,-1.350222 -0.680676,-3.151379 -1.738281,-4.208985 -1.057606,-1.057605 -2.141048,-1.43907 -2.939454,-1.638672 -1.596811,-0.399202 -2.534219,-0.248408 -3.552734,-0.121093 l 0.316406,-0.03125 c -0.988611,0.06591 -3.862813,0.159304 -8.189453,0.24414 h -0.148437 a 5.50055,5.50055 0 0 0 -4.720703,3.619141 c -1.997077,-1.342824 -4.025874,-2.510282 -6.09375,-3.457031 -2.417824,-1.196494 -4.966527,-1.955078 -7.617188,-1.955078 z m 69.230469,8.408203 c 0.561003,-0.03744 1.325511,0.04654 2.220703,0.49414 A 5.50055,5.50055 0 0 0 93.613281,32.28125 c 0.01127,-0.005 0.01601,-0.02053 0.02734,-0.02539 0.07903,-0.03387 0.437044,-0.191071 0.998047,-0.228515 z m 7.666018,4.167968 -0.0801,0.53125 c 0.0282,-0.1409 0.002,-0.244458 0.0234,-0.380859 0.006,-0.04588 0.0521,-0.105385 0.0566,-0.150391 z m -13.365237,0.04687 c -0.93633,1.905328 -1.746043,3.841711 -2.505859,5.791016 A 5.50055,5.50055 0 0 0 83.945312,40.40625 c 0.815959,-0.720404 1.236491,-1.064194 2.189454,-1.914063 1.126396,-0.993879 2.010895,-1.669704 2.804687,-2.25 z m -40.099609,0.02734 c -0.04834,0.250304 -0.05609,0.427945 -0.119141,0.701172 a 5.50055,5.50055 0 0 0 -0.06641,0.333984 c -0.158448,0.950687 -0.312485,1.756768 -0.455078,2.398438 l 0.04492,-0.1875 c -0.212793,0.820772 -0.320849,1.64643 -0.503907,2.46875 A 5.50055,5.50055 0 0 0 44.414062,41.3125 5.50055,5.50055 0 0 0 46.271484,39.878906 c 0.725044,-1.373767 1.296585,-2.465296 1.808594,-3.58789 0.263565,-0.0074 0.517636,-0.01393 0.759766,-0.02148 z m -14.666016,1.0625 0.09375,0.07422 c -0.0084,-0.0069 -0.0189,-0.01069 -0.02734,-0.01758 -0.02298,-0.01802 -0.04341,-0.03864 -0.06641,-0.05664 z m 5.480469,4.732422 a 5.50055,5.50055 0 0 0 2.699219,0.541016 5.50055,5.50055 0 0 0 -1.363282,1.451172 5.50055,5.50055 0 0 0 -0.78125,-1.511719 c -0.176812,-0.168384 -0.376334,-0.313626 -0.554687,-0.48046 z m 45.90039,1.976563 c -0.01293,0.03361 -0.02033,0.06601 -0.0332,0.09961 -0.0054,0.01525 -0.01415,0.02967 -0.01953,0.04492 z m -60.59375,0.699218 c 0.153325,0.0162 0.295111,0.119141 0.447266,0.119141 0.05667,0 0.647438,0.0418 1.892578,1.060547 a 5.50055,5.50055 0 0 0 0.09375,0.07617 c 0.685584,0.536543 1.302241,1.138797 1.964844,1.697265 -0.244115,0.411806 -0.48844,0.845318 -0.732422,1.251953 -1.038916,1.731527 -1.910397,3.26245 -2.644531,4.634766 -1.938487,3.353642 -3.671403,6.680728 -5.1875,9.980469 l 0.02344,-0.05273 c -0.559641,1.185123 -1.605427,2.685067 -2.363281,4.001954 0.08847,-0.889493 0.111038,-1.777266 0.238281,-2.667969 a 5.50055,5.50055 0 0 0 0.0039,-0.03516 c 0.215804,-1.582563 0.64495,-3.720425 1.294921,-6.320313 0.636895,-2.547576 1.438725,-5.198783 2.410157,-7.951172 0.778867,-2.206791 1.659416,-4.046327 2.558593,-5.794922 z m 17.982422,1.408203 c 1.674545,10e-7 1.884682,0.333653 2.039063,0.431641 L 43.558594,46.29296 c -0.221073,-0.02768 -0.380845,-0.144532 -0.615235,-0.144532 z m -3.689453,0.126954 h 0.09766 a 5.50055,5.50055 0 0 0 -0.21875,0.498046 z m 41.195313,27.451171 a 5.50055,5.50055 0 0 0 2.27539,1.210938 c -0.844874,1.202919 -1.693197,2.406052 -2.453125,3.617187 l -1.609375,2.066407 c 0.09689,-0.346188 0.194276,-0.755161 0.291016,-1.09375 l -0.03711,0.11914 c 0.64644,-2.082975 1.102406,-4.010148 1.533204,-5.919922 z m -62.023438,5.914063 0.0293,0.113281 c -0.0075,-0.03004 -0.01404,-0.04455 -0.02148,-0.07422 -0.0034,-0.01261 -0.0044,-0.02646 -0.0078,-0.03906 z m 26.111328,11.361328 a 5.50055,5.50055 0 0 0 0.699219,0.289063 c -0.229064,0.220944 -0.438091,0.52515 -0.669922,0.734375 -0.01468,-0.358782 -0.01949,-0.681818 -0.0293,-1.023438 z"
       id="path3" />
    <path
       style="font-size:128px;font-family:'Syne Tactile';-inkscape-font-specification:'Syne Tactile';baseline-shift:baseline;display:inline;overflow:visible;vector-effect:none;stroke-linecap:round;stroke-linejoin:round;paint-order:stroke fill markers;enable-background:accumulate;stop-color:#000000;stop-opacity:1"
       d="m 43.71199,98.239969 q -2.688,1.28 -3.584,-0.64 -0.896,-1.792 -1.024,-4.224 -0.128,-2.432 -0.128,-4.48 0,-5.888 1.024,-12.544 1.024,-6.784 2.304,-12.928 1.28,-6.272 2.048,-10.496 0.256,-1.664 0.512,-3.2 0.256,-1.664 0.512,-3.328 -0.128,0.512 -0.384,0.896 -0.256,0.384 -0.512,0.768 l -0.896,3.712 h -0.384 q -0.128,-0.128 -0.256,-0.128 -0.128,0 -0.384,-0.128 -1.664,2.944 -3.2,5.504 -1.536,2.56 -2.56,4.352 -2.816,5.12 -5.376,10.368 -2.56,5.12 -5.76,9.984 -1.92,2.816 -3.84,5.248 -1.92,2.304 -3.456,4.608 -4.736,6.784 -6.528,6.272 -1.152,-0.384 -2.3039998,-2.944 -1.024,-2.56 -1.92,-5.888 -0.896,-3.456 -1.408,-6.272 -0.512,-2.944 -0.512,-3.968 0,-3.968 0,-8.064 0.128,-4.224 0.64,-8.192 0.512,-3.456 1.792,-8.192 1.408,-4.864 3.4559998,-9.856 2.048,-5.12 4.736,-9.088 2.816,-3.968 6.144,-5.632 1.28,-0.64 2.944,-0.64 2.432,0 5.248,1.408 2.816,1.28 5.632,3.2 2.816,1.92 5.12,3.584 2.432,-4.608 2.432,-6.4 h 0.256 q 6.528,-0.128 8.448,-0.256 2.048,-0.256 2.048,0.512 0,0.128 0.128,1.408 0.128,1.152 -0.128,2.56 -0.128,1.408 -0.512,3.072 -0.256,1.536 -0.512,2.688 -0.896,3.456 -1.408,6.912 -0.384,3.456 -1.024,7.04 -0.768,4.352 -1.92,9.728 -1.152,5.376 -2.048,11.008 -0.768,5.632 -1.024,10.624 1.152,-1.28 2.432,-3.072 1.408,-1.792 4.224,-5.632 0.128,-0.128 0.896,-1.408 0.896,-1.408 1.792,-2.816 0.896,-1.408 1.024,-1.536 h 0.384 l 2.944,4.608 h 2.56 q 0,1.664 -1.024,2.688 -0.896,0.896 -1.536,2.176 -0.512,1.28 -1.536,2.432 -2.432,3.328 -4.992,6.912 -2.56,3.456 -5.504,6.016 -1.536,1.28 -2.688,1.408 -1.152,0.256 -1.408,0.256 z m -29.952,-14.208 q 2.176,-2.944 3.712,-4.864 1.536,-2.048 2.432,-3.328 3.712,-5.376 5.888,-9.984 2.176,-4.736 4.992,-9.6 1.024,-1.92 2.56,-4.48 1.536,-2.56 3.072,-5.248 -2.688,-2.56 -5.632,-4.864 -2.816,-2.304 -5.376,-2.304 -0.384,0 -0.384,-1.408 0,-1.408 0.128,-1.92 -2.432,1.408 -4.48,4.864 -1.92,3.456 -3.456,7.808 -1.536,4.352 -2.56,8.448 -1.024,4.096 -1.408,6.912 -0.512,3.584 -0.64,7.168 0,3.456 0,7.552 h -0.128 q 0.256,0.768 0.64,2.304 0.384,1.408 0.64,2.944 z m 59.391996,15.872 -6.912,-2.56 h -0.128 q -0.256,-0.768 -0.256,-1.152 0,-2.048 1.408,-4.224 1.408,-2.304 2.816,-3.968 1.408,-1.792 1.536,-2.304 1.024,-4.096 2.048,-7.68 1.152,-3.712 1.792,-6.912 1.024,-4.608 2.304,-8.192 1.408,-3.712 2.304,-6.912 0.768,-2.56 1.408,-5.12 0.768,-2.688 1.536,-5.12 -7.04,6.144 -8.192,6.656 h -0.256 l -2.944,-9.216 h 0.128 q 1.28,-0.64 3.584,-2.56 2.432,-2.048 7.168,-6.272 2.176,-1.92 3.84,-3.072 1.664,-1.28 3.328,-2.048 2.432,-1.152 3.2,-0.256 0.896,0.896 2.56,3.072 1.664,2.304 1.408,3.584 -0.128,1.28 -1.024,1.664 -0.896,0.384 -1.408,0.128 -2.176,4.224 -3.712,8.576 -1.28,3.328 -2.176,6.528 -0.768,3.2 -1.664,6.272 -0.896,3.2 -1.792,5.888 -0.896,2.56 -1.792,4.992 3.328,-4.608 6.656,-8.576 3.328,-4.096 5.76,-8.064 0.896,-1.408 2.816,-4.48 1.920004,-3.072 4.352004,-6.528 2.56,-3.456 4.864,-6.144 2.304,-2.816 3.968,-3.328 1.536,-0.512 2.56,-0.768 1.152,-0.256 2.304,-0.256 1.152,0 2.304,0.256 1.152,0.256 3.2,0.896 h 0.256 l -1.792,9.856 -6.528,-0.256 q -1.664,0.512 -4.352,4.224 -2.56,3.584 -8.064,12.16 -4.352004,6.912 -8.960004,12.416 -4.608,5.376 -7.936,10.752 l -6.784,8.704 q -0.128,0.768 -0.384,1.408 -0.128,0.512 -0.256,1.024 l -0.128,-0.128 q 0,2.432 -1.152,4.736 -1.024,2.304 -2.688,2.304 z"
       id="path4" />
  </g>
</svg>
