<?xml version="1.0" encoding="UTF-8" standalone="no"?>
<svg
   width="128"
   height="128"
   viewBox="0 0 128 128"
   version="1.1"
   id="svg2"
   sodipodi:docname="favicon.svg"
   inkscape:version="1.4.2 (f4327f4, 2025-05-13)"
   xmlns:inkscape="http://www.inkscape.org/namespaces/inkscape"
   xmlns:sodipodi="http://sodipodi.sourceforge.net/DTD/sodipodi-0.dtd"
   xmlns="http://www.w3.org/2000/svg"
   xmlns:svg="http://www.w3.org/2000/svg"
   xmlns:rdf="http://www.w3.org/1999/02/22-rdf-syntax-ns#"
   xmlns:cc="http://creativecommons.org/ns#"
   xmlns:dc="http://purl.org/dc/elements/1.1/">
  <defs
     id="defs2" />
  <sodipodi:namedview
     id="namedview2"
     pagecolor="#ffffff"
     bordercolor="#000000"
     borderopacity="0.25"
     inkscape:showpageshadow="2"
     inkscape:pageopacity="0.0"
     inkscape:pagecheckerboard="0"
     inkscape:deskcolor="#d1d1d1"
     inkscape:zoom="4.270262"
     inkscape:cx="95.895755"
     inkscape:cy="75.522298"
     inkscape:window-width="1920"
     inkscape:window-height="991"
     inkscape:window-x="-9"
     inkscape:window-y="-9"
     inkscape:window-maximized="1"
     inkscape:current-layer="svg2" />
  <title
     id="title1">svelte-logo</title>
  <metadata
     id="metadata2">
    <rdf:RDF>
      <cc:Work
         rdf:about="">
        <dc:title>svelte-logo</dc:title>
      </cc:Work>
    </rdf:RDF>
  </metadata>
  <g
     id="text3"
     style="opacity:1"
     transform="translate(-0.69159823,-5.0818702)">
    <path
       style="font-size:128px;font-family:'Syne Tactile';-inkscape-font-specification:'Syne Tactile';baseline-shift:baseline;display:inline;overflow:visible;vector-effect:none;fill:#ffffff;stroke-linecap:round;stroke-linejoin:round;paint-order:stroke fill markers;enable-background:accumulate;stop-color:#000000;stop-opacity:1"
       d="m 91.976562,28.449219 c -1.513249,0.12106 -2.615084,0.568365 -3.738281,1.099609 -1.45403,0.673737 -2.83996,1.540155 -4.171875,2.556641 -1.306469,0.913047 -2.673572,2.007471 -4.183594,3.339843 a 5.0005,5.0005 0 0 0 -0.01953,0.01758 c -3.139622,2.800203 -5.511531,4.8733 -7.060547,6.177734 -1.380568,1.147328 -2.462876,1.845696 -2.599609,1.914062 l 1.998047,-0.472656 a 5.0005,5.0005 0 0 0 -4.652344,6.464844 l 2.943359,9.216797 a 5.0005,5.0005 0 0 0 4.576172,3.341797 c -0.409579,1.264749 -0.754945,2.456396 -1.287109,3.859375 a 5.0005,5.0005 0 0 0 -0.0332,0.0918 c -0.939574,2.630805 -1.757741,5.554364 -2.476563,8.789062 a 5.0005,5.0005 0 0 0 -0.02344,0.103516 c -0.386438,1.932188 -0.938926,4.073604 -1.664063,6.410156 a 5.0005,5.0005 0 0 0 -0.03125,0.109375 c -0.643792,2.253272 -1.284684,4.679981 -1.923828,7.210937 -0.151127,0.220711 -0.400814,0.567478 -0.785156,1.056641 l 0.115234,-0.140625 c -1.125805,1.330497 -2.185408,2.842584 -3.216797,4.523438 -1.31362,2.042639 -2.189453,4.402828 -2.189453,6.898435 0,1.36711 0.261996,1.9852 0.511719,2.73437 a 5.0005,5.0005 0 0 0 4.744141,3.41797 h -0.769532 l 6.072266,2.24805 a 5.0005,5.0005 0 0 0 1.736328,0.3125 h 0.128906 c 1.708513,0 3.535669,-0.7337 4.757813,-1.78125 1.184454,-1.01525 1.895516,-2.1921 2.435547,-3.38086 0.829339,-1.68431 1.273538,-3.51365 1.464844,-5.37109 a 5.0005,5.0005 0 0 0 0.160156,-0.166016 l 0.255859,-1.025391 -0.208984,0.644532 c 0.120515,-0.301289 0.161493,-0.613959 0.253906,-0.919922 l 6.214844,-7.97461 a 5.0005,5.0005 0 0 0 0.308594,-0.441406 c 2.067663,-3.340071 4.557342,-6.720545 7.480468,-10.130859 a 5.0005,5.0005 0 0 0 0.03711,-0.04492 c 3.23597,-3.865187 6.35097,-8.185991 9.35742,-12.960938 l -0.0215,0.03711 c 3.64147,-5.67392 6.30757,-9.691004 7.90429,-11.927735 l 0.006,-0.0059 c 0.75461,-1.039933 1.49722,-1.696315 1.92969,-2.082031 l 4.69922,0.183593 a 5.0005,5.0005 0 0 0 5.11523,-4.101562 l 1.79297,-9.857422 A 5.0005,5.0005 0 0 0 123.125,32.587891 l 1.10938,0.169921 c -1.43893,-0.449665 -2.58864,-0.777943 -3.60547,-1.003906 -1.11254,-0.24723 -2.25031,-0.376953 -3.38868,-0.376953 -1.13837,0 -2.27613,0.129723 -3.38867,0.376953 a 5.0005,5.0005 0 0 0 -0.1289,0.0293 c -0.84201,0.210501 -1.77039,0.494412 -2.82422,0.84375 -2.92941,0.904136 -4.52907,2.704727 -6.33008,4.904297 -0.65951,0.770566 -1.37614,1.749028 -2.05664,2.597656 0.0997,-2.652657 -1.10272,-4.45578 -2.33789,-6.166015 a 5.0005,5.0005 0 0 0 -0.082,-0.109375 C 99.001413,32.427592 98.168266,31.421954 97.302764,30.5293 95.849333,28.878084 93.482595,28.328742 91.976592,28.449222 Z m -65.873046,0.496093 c -1.750359,0 -3.551184,0.353717 -5.179688,1.167969 -3.136028,1.568014 -5.76188,4.076488 -7.986328,7.210938 a 5.0005,5.0005 0 0 0 -0.06055,0.08984 c -2.013598,2.972454 -3.7463084,6.310857 -5.2226561,9.994141 -0.00161,0.0039 -0.0023,0.0078 -0.00391,0.01172 -1.4269611,3.47934 -2.6383492,6.929638 -3.6289062,10.351562 a 5.0005,5.0005 0 0 0 -0.025391,0.08594 C 3.1066464,61.148377 2.4672685,64.04711 2.0859375,66.621094 a 5.0005,5.0005 0 0 0 -0.013672,0.09375 c -0.3633823,2.816213 -0.5877233,5.709324 -0.6777344,8.679687 a 5.0005,5.0005 0 0 0 -0.00195,0.150391 v 8.064453 c 0,1.516 0.2278369,2.767093 0.5859375,4.826172 a 5.0005,5.0005 0 0 0 0.00586,0.03711 c 0.3687624,2.028194 0.8662173,4.233423 1.4882813,6.632813 a 5.0005,5.0005 0 0 0 0.011719,0.04492 c 0.6379729,2.369613 1.3320888,4.511862 2.1054687,6.44531 a 5.0005,5.0005 0 0 0 0.082031,0.19336 c 0.9855526,2.19012 1.8272622,4.48474 5.2832034,5.63672 a 5.0005,5.0005 0 0 0 0.207031,0.0644 c 1.980579,0.56588 3.671706,-0.007 4.757813,-0.57031 1.086107,-0.56367 1.84958,-1.21719 2.607422,-1.94531 1.515684,-1.45625 2.956437,-3.29623 4.636718,-5.703127 a 5.0005,5.0005 0 0 0 0.06055,-0.08789 c 0.917327,-1.375991 1.961667,-2.771579 3.136719,-4.181641 a 5.0005,5.0005 0 0 0 0.08203,-0.101562 c 1.359306,-1.721788 2.707284,-3.564563 4.046875,-5.529297 a 5.0005,5.0005 0 0 0 0.04687,-0.06836 c 1.944922,-2.956281 3.647052,-6.016857 5.257813,-9.115234 -0.01219,0.08028 -0.02887,0.150061 -0.04102,0.230469 -4.05e-4,0.0026 4.05e-4,0.0052 0,0.0078 -3.17e-4,0.0021 -0.0016,0.0038 -0.002,0.0059 -0.714934,4.651204 -1.080078,9.080066 -1.080078,13.291015 0,1.4695 0.04556,3.047291 0.134766,4.742188 0.112464,2.136829 0.582301,4.213169 1.513671,6.109379 0.805271,1.69131 2.824495,3.51163 4.96875,3.89453 1.798335,0.32113 3.212068,-0.0853 4.478516,-0.60742 0.139731,-0.0387 0.50316,-0.0507 0.648438,-0.0977 2.311956,-0.27151 3.867439,-1.3368 5.289062,-2.52148 a 5.0005,5.0005 0 0 0 0.08008,-0.0664 c 2.261854,-1.96683 4.339377,-4.24829 6.240235,-6.814455 a 5.0005,5.0005 0 0 0 0.05078,-0.06836 c 1.696848,-2.375588 3.350983,-4.666046 4.960937,-6.869141 l -0.300781,0.371094 c 1.018667,-1.146 1.865286,-2.456183 2.441406,-3.896485 l -0.169922,0.378907 c 0.217967,-0.435934 0.423173,-0.698564 0.59961,-0.875 1.640207,-1.640207 2.488281,-4.089635 2.488281,-6.22461 a 5.0005,5.0005 0 0 0 -5,-5 h 0.179688 l -1.470704,-2.300781 a 5.0005,5.0005 0 0 0 -4.21289,-2.306641 h -0.384766 a 5.0005,5.0005 0 0 0 -2.833984,1.173829 c 0.152398,-0.754222 0.267836,-1.548732 0.427734,-2.294922 0.777454,-3.628116 1.428273,-6.923094 1.953125,-9.896485 l 0.002,-0.0098 c 0.444308,-2.489336 0.801953,-4.942181 1.070313,-7.357422 l -0.02344,0.18164 c 0.314778,-2.124748 0.746996,-4.254593 1.300782,-6.390625 a 5.0005,5.0005 0 0 0 0.04102,-0.169921 c 0.176052,-0.792234 0.340107,-1.690453 0.503906,-2.648438 0.271196,-1.175182 0.445842,-2.299662 0.5625,-3.40625 0.225974,-1.285756 0.320368,-2.583492 0.173829,-3.902344 -0.03824,-0.383636 -0.06817,-0.69711 -0.08594,-0.892578 -0.01886,-0.207456 -0.01172,-0.753557 -0.01172,0.03711 0,-1.239111 -0.62258,-2.886252 -1.591797,-3.855469 -0.969216,-0.969217 -1.965692,-1.322478 -2.707031,-1.507813 -1.482677,-0.370669 -2.381157,-0.234826 -3.36914,-0.111328 l 0.287109,-0.02734 c -1.015101,0.06767 -3.883945,0.161213 -8.212891,0.246094 h -0.158203 a 5.0005,5.0005 0 0 0 -4.517578,3.835938 c -0.07863,-0.05372 -0.137601,-0.09835 -0.216797,-0.152344 -2.06681,-1.409189 -4.169379,-2.601032 -6.30664,-3.578125 -2.364507,-1.169229 -4.837524,-1.898438 -7.390625,-1.898438 z m 69.263671,8.408204 c 0.48867,-0.0321 1.166548,0.04031 1.964844,0.439453 a 5.0005,5.0005 0 0 0 -2.841797,-0.208985 c 0.01823,-0.0085 0.0265,-0.03312 0.04492,-0.04102 0.04469,-0.01915 0.343362,-0.157352 0.832031,-0.189453 z m -3.832031,1.830078 c 0.0081,0.01007 0.01137,0.01328 0.01953,0.02344 a 5.0005,5.0005 0 0 0 -0.904296,0.769531 c -1.278834,2.482443 -2.309416,5.026522 -3.283204,7.583985 a 5.0005,5.0005 0 0 0 -4.464843,-1.470703 c 1.198854,-1.049189 2.02991,-1.748331 3.597656,-3.146485 1.348549,-1.189896 2.497834,-2.102316 3.376953,-2.710937 a 5.0005,5.0005 0 0 0 0.203125,-0.146485 c 0.52321,-0.402469 0.978479,-0.625502 1.455078,-0.902343 z m -41.40625,1.392578 c -0.06954,0.437507 -0.105743,0.818897 -0.224609,1.333984 a 5.0005,5.0005 0 0 0 -0.06055,0.300781 c -0.159559,0.957352 -0.315792,1.772627 -0.460938,2.425782 l 0.04102,-0.169922 c -0.247356,0.954088 -0.377134,1.913145 -0.583984,2.86914 a 5.0005,5.0005 0 0 0 -7.283203,2.320313 5.0005,5.0005 0 0 0 -0.0918,-0.173828 c 0.02986,-0.05342 0.02504,-0.07857 0.0625,-0.134766 l -0.07422,0.111328 a 5.0005,5.0005 0 0 0 -0.892578,-1.726562 c -1.114641,-1.061563 -2.326001,-2.024385 -3.501953,-3.023438 0.694512,0.488335 1.486309,1.026788 2.117187,1.482422 a 5.0005,5.0005 0 0 0 7.34961,-1.720703 c 0.778521,-1.475092 1.408267,-2.650752 1.925781,-3.84375 0.602714,-0.01635 1.180514,-0.03377 1.677734,-0.05078 z m 52.375004,0.394531 -0.0723,0.484375 c 0.0254,-0.127252 0.002,-0.222227 0.0215,-0.345703 0.005,-0.04255 0.0466,-0.09687 0.0508,-0.138672 z m 14.71289,0.408203 -0.15235,0.839844 -2.18945,-0.08594 a 5.0005,5.0005 0 0 0 -0.92383,0.121094 c 0.13906,-0.116567 0.16748,-0.156249 -0.10547,-0.07227 a 5.0005,5.0005 0 0 0 0.11133,-0.03711 c 0.90694,-0.302313 1.61079,-0.506982 2.10352,-0.632812 0.39958,-0.0859 0.77953,-0.131257 1.15625,-0.132813 z m -82.656253,1.173828 0.08594,0.06641 c -0.0096,-0.0079 -0.0216,-0.01167 -0.03125,-0.01953 -0.01897,-0.01487 -0.03571,-0.03202 -0.05469,-0.04687 z m -9.19336,6.4375 c 0.251933,0.04606 0.485933,0.195313 0.736329,0.195313 0.206666,0 0.908325,0.108054 2.210937,1.173828 a 5.0005,5.0005 0 0 0 0.08398,0.06836 c 0.801985,0.627641 1.527976,1.328815 2.298829,1.986328 -0.315002,0.533225 -0.630512,1.090566 -0.945313,1.615235 -1.034545,1.724242 -1.902524,3.244265 -2.630859,4.605469 -1.936136,3.348191 -3.663555,6.667667 -5.175782,9.958984 l 0.02148,-0.04687 c -0.833862,1.765825 -2.245988,3.898906 -3.509766,5.939453 0.104164,-1.62879 0.202417,-3.256764 0.435547,-4.888672 a 5.0005,5.0005 0 0 0 0.0059,-0.03125 c 0.219459,-1.60936 0.651744,-3.763223 1.304688,-6.375 0.641055,-2.56422 1.447618,-5.232117 2.423828,-7.998047 0.831988,-2.357298 1.768368,-4.355239 2.740234,-6.203125 z m 61.34961,0.05664 c -0.01012,0.02631 -0.0153,0.05182 -0.02539,0.07813 -0.0064,0.01796 -0.0171,0.03477 -0.02344,0.05273 z M 40.34375,51.601562 h 0.02148 a 5.0005,5.0005 0 0 0 -0.05078,0.115235 z m 45.230469,10.572266 -0.02539,0.08789 c 0.0066,-0.02206 0.01097,-0.04434 0.01758,-0.06641 0.0022,-0.0073 0.0056,-0.01416 0.0078,-0.02148 z m -4.767578,15.695313 a 5.0005,5.0005 0 0 0 3.53125,1.43164 c -1.041215,1.450193 -2.044751,2.904113 -2.960938,4.365235 l -3.136719,4.027343 c 0.309108,-1.153374 0.619931,-2.401204 0.927735,-3.478515 l -0.0332,0.109375 c 0.705988,-2.274852 1.226055,-4.392661 1.671875,-6.455078 z m -65.38086,15.072265 c -0.161088,0.233571 -0.365304,0.461043 -0.521484,0.695313 l 0.06055,-0.08984 c -0.467994,0.670369 -0.658693,0.801758 -1.066406,1.335937 -0.134384,-0.422258 -0.270308,-0.786535 -0.402344,-1.240234 a 5.0005,5.0005 0 0 0 1.929687,-0.701172 z m 32.148438,2.113281 c -0.772736,0.842145 -1.50878,1.830363 -2.316407,2.535157 -0.24607,0.19443 -0.416174,0.284271 -0.466796,0.308593 -0.04935,-0.945354 -0.05568,-1.74097 -0.07422,-2.580078 a 5.0005,5.0005 0 0 0 2.857423,-0.263672 z m -2.310547,2.785157 a 5.0005,5.0005 0 0 0 -0.470703,0.08008 c -3.8e-5,-7.16e-4 3.7e-5,-0.0012 0,-0.002 -0.0032,0.0047 0.100729,-0.03702 0.470703,-0.07813 z"
       id="path3" />
    <path
       style="font-size:128px;font-family:'Syne Tactile';-inkscape-font-specification:'Syne Tactile';baseline-shift:baseline;display:inline;overflow:visible;vector-effect:none;stroke-linecap:round;stroke-linejoin:round;paint-order:stroke fill markers;enable-background:accumulate;stop-color:#000000;stop-opacity:1"
       d="m 44.407791,103.06587 q -2.688,1.28 -3.584,-0.64 -0.896,-1.792 -1.024,-4.224004 -0.128,-2.432 -0.128,-4.48 0,-5.888 1.024,-12.544 1.024,-6.784 2.304,-12.928 1.28,-6.272 2.048,-10.496 0.256,-1.664 0.512,-3.2 0.256,-1.664 0.512,-3.328 -0.128,0.512 -0.384,0.896 -0.256,0.384 -0.512,0.768 l -0.896,3.712 h -0.384 q -0.128,-0.128 -0.256,-0.128 -0.128,0 -0.384,-0.128 -1.664,2.944 -3.2,5.504 -1.536,2.56 -2.56,4.352 -2.816,5.12 -5.376,10.368 -2.56,5.12 -5.76,9.984 -1.92,2.816 -3.84,5.248 -1.92,2.304 -3.456,4.608 -4.736,6.784004 -6.528,6.272004 -1.152,-0.384 -2.304,-2.944004 -1.024,-2.56 -1.92,-5.888 -0.896,-3.456 -1.408,-6.272 -0.512,-2.944 -0.512,-3.968 0,-3.968 0,-8.064 0.128,-4.224 0.64,-8.192 0.512,-3.456 1.792,-8.192 1.408,-4.864 3.456,-9.856 2.048,-5.12 4.736,-9.088 2.816,-3.968 6.144,-5.632 1.28,-0.64 2.944,-0.64 2.432,0 5.248,1.408 2.816,1.28 5.632,3.2 2.816,1.92 5.12,3.584 2.432,-4.608 2.432,-6.4 h 0.256 q 6.528,-0.128 8.448,-0.256 2.048,-0.256 2.048,0.512 0,0.128 0.128,1.408 0.128,1.152 -0.128,2.56 -0.128,1.408 -0.512,3.072 -0.256,1.536 -0.512,2.688 -0.896,3.456 -1.408,6.912 -0.384,3.456 -1.024,7.04 -0.768,4.352 -1.92,9.728 -1.152,5.376 -2.048,11.008 -0.768,5.632 -1.024,10.624 1.152,-1.28 2.432,-3.072 1.408,-1.792 4.224,-5.632 0.128,-0.128 0.896,-1.408 0.896,-1.408 1.792,-2.816 0.896,-1.408 1.024,-1.536 h 0.384 l 2.944,4.608 h 2.56 q 0,1.664 -1.024,2.688 -0.896,0.896 -1.536,2.176 -0.512,1.28 -1.536,2.432 -2.432,3.328 -4.992,6.912 -2.56,3.456 -5.504,6.016004 -1.536,1.28 -2.688,1.408 -1.152,0.256 -1.408,0.256 z m -29.952,-14.208004 q 2.176,-2.944 3.712,-4.864 1.536,-2.048 2.432,-3.328 3.712,-5.376 5.888,-9.984 2.176,-4.736 4.992,-9.6 1.024,-1.92 2.56,-4.48 1.536,-2.56 3.072,-5.248 -2.688,-2.56 -5.632,-4.864 -2.816,-2.304 -5.376,-2.304 -0.384,0 -0.384,-1.408 0,-1.408 0.128,-1.92 -2.432,1.408 -4.48,4.864 -1.92,3.456 -3.456,7.808 -1.536,4.352 -2.56,8.448 -1.024,4.096 -1.408,6.912 -0.512,3.584 -0.64,7.168 0,3.456 0,7.552 h -0.128 q 0.256,0.768 0.64,2.304 0.384,1.408 0.64,2.944 z m 59.391996,15.872004 -6.912,-2.56 h -0.128 q -0.256,-0.768 -0.256,-1.152 0,-2.048004 1.408,-4.224004 1.408,-2.304 2.816,-3.968 1.408,-1.792 1.536,-2.304 1.024,-4.096 2.048,-7.68 1.152,-3.712 1.792,-6.912 1.024,-4.608 2.304,-8.192 1.408,-3.712 2.304,-6.912 0.768,-2.56 1.408,-5.12 0.768,-2.688 1.536,-5.12 -7.04,6.144 -8.192,6.656 h -0.256 l -2.944,-9.216 h 0.128 q 1.28,-0.64 3.584,-2.56 2.432,-2.048 7.168,-6.272 2.176,-1.92 3.84,-3.072 1.664,-1.28 3.328,-2.048 2.432,-1.152 3.2,-0.256 0.896,0.896 2.56,3.072 1.664,2.304 1.408,3.584 -0.128,1.28 -1.024,1.664 -0.896,0.384 -1.408,0.128 -2.176,4.224 -3.712,8.576 -1.28,3.328 -2.176,6.528 -0.768,3.2 -1.664,6.272 -0.896,3.2 -1.792,5.888 -0.896,2.56 -1.792,4.992 3.328,-4.608 6.656,-8.576 3.328,-4.096 5.76,-8.064 0.896,-1.408 2.816,-4.48 1.920003,-3.072 4.352003,-6.528 2.56,-3.456 4.864,-6.144 2.304,-2.816 3.968,-3.328 1.536,-0.512 2.56,-0.768 1.152,-0.256 2.304,-0.256 1.152,0 2.304,0.256 1.152,0.256 3.2,0.896 h 0.256 l -1.792,9.856 -6.528,-0.256 q -1.664,0.512 -4.352,4.224 -2.56,3.584 -8.064,12.16 -4.352003,6.912 -8.960003,12.416 -4.608,5.376 -7.936,10.752 l -6.784,8.704 q -0.128,0.768 -0.384,1.408 -0.128,0.512 -0.256,1.024 l -0.128,-0.128 q 0,2.432004 -1.152,4.736004 -1.024,2.304 -2.688,2.304 z"
       id="path4" />
  </g>
</svg>
